<svg width="24" height="24" viewBox="0 0 24 24" fill="none" xmlns="http://www.w3.org/2000/svg">
<path fill-rule="evenodd" clip-rule="evenodd" d="M15.9326 5.01834C15.1373 4.2231 13.843 4.23969 13.0684 5.05506L4.46601 14.1102C4.21604 14.3733 4.04237 14.6995 3.96364 15.0538L3.35682 17.7845C3.04326 19.1955 4.28405 20.463 5.70143 20.1795L8.89921 19.5399C9.28639 19.4625 9.64199 19.2722 9.92119 18.993L18.5 10.4142C19.281 9.63315 19.281 8.36682 18.5 7.58577L15.9326 5.01834ZM14.5184 6.43256L17.0858 8.99998L8.50698 17.5788L5.3092 18.2183L5.91601 15.4877L14.5184 6.43256ZM14 18.5C13.4477 18.5 13 18.9477 13 19.5C13 20.0523 13.4477 20.5 14 20.5H20C20.5523 20.5 21 20.0523 21 19.5C21 18.9477 20.5523 18.5 20 18.5H14Z" />
</svg>
