<svg width="24" height="24" viewBox="0 0 24 24" fill="none" xmlns="http://www.w3.org/2000/svg">
<g clip-path="url(#clip0_6219_4113)">
<path fill-rule="evenodd" clip-rule="evenodd" d="M7.26846 5.58C6.83299 5.14453 6.12695 5.14453 5.69148 5.58C5.25601 6.01547 5.25601 6.72151 5.69148 7.15698L10.4224 11.8879L5.57941 16.7309C5.14394 17.1664 5.14394 17.8725 5.57941 18.3079C6.01488 18.7434 6.72092 18.7434 7.15639 18.3079L11.9994 13.4649L16.8424 18.3079C17.2779 18.7434 17.9839 18.7434 18.4194 18.3079C18.8549 17.8725 18.8549 17.1664 18.4194 16.7309L13.5764 11.8879L18.3073 7.15698C18.7428 6.72151 18.7428 6.01547 18.3073 5.58C17.8719 5.14453 17.1658 5.14453 16.7304 5.58L11.9994 10.3109L7.26846 5.58Z" />
</g>
<defs>
<clipPath id="clip0_6219_4113">
<rect width="24" height="24" fill="white"/>
</clipPath>
</defs>
</svg>
